<?xml version="1.0" encoding="utf-8"?>
<!-- Generator: Adobe Illustrator 25.0.0, SVG Export Plug-In . SVG Version: 6.00 Build 0)  -->
<svg version="1.1" id="Layer_1" xmlns="http://www.w3.org/2000/svg" xmlns:xlink="http://www.w3.org/1999/xlink" x="0px" y="0px"
	 viewBox="0 0 200 200" style="enable-background:new 0 0 200 200;" xml:space="preserve">
<style type="text/css">
	.st0{fill:#A50064;}
</style>
<g>
	<path class="st0" d="M156.8,91c23.5,0,42.5-19,42.5-42.5c0-23.5-19-42.5-42.5-42.5c-23.5,0-42.5,19-42.5,42.5
		C114.3,72,133.3,91,156.8,91z M156.8,30.4c10,0,18.1,8.1,18.1,18.1c0,10-8.1,18.1-18.1,18.1c-10,0-18.1-8.1-18.1-18.1
		C138.7,38.5,146.8,30.4,156.8,30.4z"/>
	<path class="st0" d="M70.2,109.4c-7.2,0-13.8,2.4-19.1,6.4c-5.3-4-12-6.4-19.1-6.4C14.3,109.4,0,123.7,0,141.3v53.2h24.4V141
		c0-4,3.2-7.2,7.2-7.2c4,0,7.2,3.2,7.2,7.2v53.4h24.4V141c0-4,3.2-7.2,7.2-7.2c4,0,7.2,3.2,7.2,7.2v53.4H102v-53.2
		C102,123.7,87.8,109.4,70.2,109.4z"/>
	<path class="st0" d="M156.8,109.4c-23.5,0-42.5,19-42.5,42.5c0,23.5,19,42.5,42.5,42.5c23.5,0,42.5-19,42.5-42.5
		C199.3,128.4,180.3,109.4,156.8,109.4z M156.8,170c-10,0-18.1-8.1-18.1-18.1c0-10,8.1-18.1,18.1-18.1c10,0,18.1,8.1,18.1,18.1
		C174.9,161.9,166.8,170,156.8,170z"/>
	<path class="st0" d="M70.2,6C63,6,56.4,8.4,51,12.4c-5.3-4-12-6.4-19.1-6.4C14.3,6,0,20.3,0,37.9V91h24.4V37.6c0-4,3.2-7.2,7.2-7.2
		c4,0,7.2,3.2,7.2,7.2V91h24.4V37.6c0-4,3.2-7.2,7.2-7.2c4,0,7.2,3.2,7.2,7.2V91H102V37.9C102,20.3,87.8,6,70.2,6z"/>
</g>
</svg>
